# xmcd
#
# Track frame offsets: 
#        150
#        20980
#        45002
#        63481
#        96896
#        133040
#        166253
#        191226
#        212386
#        216161
#        233619
#        261665
#
# Disc length: 4070 seconds
#
# Revision: 0
# Processed by: cddbd v1.5.2PL0 Copyright (c) Steve Scherf et al.
# Submitted via: ExactAudioCopyFreeDBPlugin 1.0
#
DISCID=ac0fe40c
DTITLE=Ken Hensley and Live Fire - 2008 - DVD - Blood On The Highway Cd 
DTITLE=1
DYEAR=2008
DGENRE=
TTITLE0=Just The Beginning (4:37)
TTITLE1=We're On Our Way (5:20)
TTITLE2=Blood On The Highway (4:06)
TTITLE3=You've Got It (7:25)
TTITLE4=It Won't Last (8:01)
TTITLE5=Think Twice (7:22)
TTITLE6=There Comes A Time (5:32)
TTITLE7=Okay (This House Is Down) (4:42)
TTITLE8=What You Got It (0:50)
TTITLE9=Postscript (3:52)
TTITLE10=I Did It All (6:13)
TTITLE11=The Last Dance (9:42)
EXTD=
EXTT0=
EXTT1=
EXTT2=
EXTT3=
EXTT4=
EXTT5=
EXTT6=
EXTT7=
EXTT8=
EXTT9=
EXTT10=
EXTT11=
PLAYORDER=
